{
	"patcher" : 	{
		"fileversion" : 1,
		"appversion" : 		{
			"major" : 8,
			"minor" : 1,
			"revision" : 3,
			"architecture" : "x64",
			"modernui" : 1
		}
,
		"classnamespace" : "box",
		"rect" : [ 34.0, 103.0, 909.0, 598.0 ],
		"bglocked" : 0,
		"openinpresentation" : 1,
		"default_fontsize" : 12.0,
		"default_fontface" : 0,
		"default_fontname" : "Arial",
		"gridonopen" : 1,
		"gridsize" : [ 15.0, 15.0 ],
		"gridsnaponopen" : 1,
		"objectsnaponopen" : 1,
		"statusbarvisible" : 2,
		"toolbarvisible" : 1,
		"lefttoolbarpinned" : 0,
		"toptoolbarpinned" : 0,
		"righttoolbarpinned" : 0,
		"bottomtoolbarpinned" : 0,
		"toolbars_unpinned_last_save" : 0,
		"tallnewobj" : 0,
		"boxanimatetime" : 200,
		"enablehscroll" : 1,
		"enablevscroll" : 1,
		"devicewidth" : 0.0,
		"description" : "",
		"digest" : "",
		"tags" : "",
		"style" : "",
		"subpatcher_template" : "",
		"boxes" : [ 			{
				"box" : 				{
					"bgcolor" : [ 0.2, 0.2, 0.2, 0.0 ],
					"fontface" : 3,
					"fontsize" : 18.0,
					"format" : 6,
					"id" : "obj-25",
					"maxclass" : "flonum",
					"minimum" : 0.0,
					"numinlets" : 1,
					"numoutlets" : 2,
					"outlettype" : [ "", "bang" ],
					"parameter_enable" : 0,
					"patching_rect" : [ 419.547622544424883, 1094.666680335998535, 68.0, 29.0 ],
					"presentation" : 1,
					"presentation_rect" : [ 307.214285714285722, 146.0, 66.0, 29.0 ],
					"textcolor" : [ 0.847, 0.847, 0.847, 1.0 ],
					"tricolor" : [ 0.501960784313725, 0.501960784313725, 0.501960784313725, 0.0 ]
				}

			}
, 			{
				"box" : 				{
					"bgcolor" : [ 0.2, 0.2, 0.2, 0.0 ],
					"fontface" : 3,
					"fontsize" : 18.0,
					"format" : 6,
					"id" : "obj-23",
					"maxclass" : "flonum",
					"minimum" : 0.0,
					"numinlets" : 1,
					"numoutlets" : 2,
					"outlettype" : [ "", "bang" ],
					"parameter_enable" : 0,
					"patching_rect" : [ 740.380955679076123, 1094.666680335998535, 69.0, 29.0 ],
					"presentation" : 1,
					"presentation_rect" : [ 848.000000476837158, 147.0, 68.0, 29.0 ],
					"textcolor" : [ 0.847, 0.847, 0.847, 1.0 ],
					"tricolor" : [ 0.501960784313725, 0.501960784313725, 0.501960784313725, 0.0 ]
				}

			}
, 			{
				"box" : 				{
					"bgcolor" : [ 0.2, 0.2, 0.2, 0.0 ],
					"fontface" : 3,
					"fontsize" : 18.0,
					"format" : 6,
					"id" : "obj-22",
					"maxclass" : "flonum",
					"minimum" : 0.0,
					"numinlets" : 1,
					"numoutlets" : 2,
					"outlettype" : [ "", "bang" ],
					"parameter_enable" : 0,
					"patching_rect" : [ 687.933332777023224, 1241.666692137718201, 69.0, 29.0 ],
					"presentation" : 1,
					"presentation_rect" : [ 846.0, 570.333346009254456, 67.0, 29.0 ],
					"textcolor" : [ 0.847, 0.847, 0.847, 1.0 ],
					"tricolor" : [ 0.501960784313725, 0.501960784313725, 0.501960784313725, 0.0 ]
				}

			}
, 			{
				"box" : 				{
					"bgcolor" : [ 0.2, 0.2, 0.2, 0.0 ],
					"fontface" : 3,
					"fontsize" : 18.0,
					"format" : 6,
					"id" : "obj-21",
					"maxclass" : "flonum",
					"minimum" : 0.0,
					"numinlets" : 1,
					"numoutlets" : 2,
					"outlettype" : [ "", "bang" ],
					"parameter_enable" : 0,
					"patching_rect" : [ 412.714286548750806, 1241.666692137718201, 69.0, 29.0 ],
					"presentation" : 1,
					"presentation_rect" : [ 329.500000000000057, 572.333346009254456, 68.0, 29.0 ],
					"textcolor" : [ 0.847, 0.847, 0.847, 1.0 ],
					"tricolor" : [ 0.501960784313725, 0.501960784313725, 0.501960784313725, 0.0 ]
				}

			}
, 			{
				"box" : 				{
					"fontsize" : 14.0,
					"id" : "obj-119",
					"linecount" : 17,
					"maxclass" : "comment",
					"numinlets" : 1,
					"numoutlets" : 0,
					"patching_rect" : [ 1405.166650652885437, 999.333357691764832, 129.0, 272.0 ],
					"presentation" : 1,
					"presentation_linecount" : 9,
					"presentation_rect" : [ 1045.547641379492688, 788.666691064834595, 286.000000953674316, 147.0 ],
					"text" : "Source:\nWeekly and hourly earnings data from the Current Population Survey\n\nDesc:\nMedian Hourly Earnings - in current dollars\tfor All Industries, All Occupations, All Sexes, All Races, All Ethnic Origins, All educational levels, all aged 16 years and older",
					"textcolor" : [ 0.847058823529412, 0.847058823529412, 0.847058823529412, 1.0 ]
				}

			}
, 			{
				"box" : 				{
					"fontface" : 1,
					"fontsize" : 18.0,
					"id" : "obj-120",
					"linecount" : 2,
					"maxclass" : "comment",
					"numinlets" : 1,
					"numoutlets" : 0,
					"patching_rect" : [ 1405.166650652885437, 974.333357691764832, 144.0, 47.0 ],
					"presentation" : 1,
					"presentation_rect" : [ 1045.547641379492688, 763.666691064834595, 160.0, 27.0 ],
					"text" : "Hourly Earnings",
					"textcolor" : [ 0.847058823529412, 0.847058823529412, 0.847058823529412, 1.0 ]
				}

			}
, 			{
				"box" : 				{
					"fontsize" : 14.0,
					"id" : "obj-117",
					"linecount" : 14,
					"maxclass" : "comment",
					"numinlets" : 1,
					"numoutlets" : 0,
					"patching_rect" : [ 1403.833317279815674, 814.000018835067749, 127.0, 225.0 ],
					"presentation" : 1,
					"presentation_linecount" : 8,
					"presentation_rect" : [ 1045.547641379492688, 598.333352208137512, 288.0, 132.0 ],
					"text" : "Source:\nCPI Average Price Data, U.S. city average (AP)\t\n\nDesc:\nGasoline, unleaded regular, per gallon/3.785 liters in U.S. city average, average price, not seasonally adjusted\t\t\t",
					"textcolor" : [ 0.847058823529412, 0.847058823529412, 0.847058823529412, 1.0 ]
				}

			}
, 			{
				"box" : 				{
					"fontface" : 1,
					"fontsize" : 18.0,
					"id" : "obj-118",
					"maxclass" : "comment",
					"numinlets" : 1,
					"numoutlets" : 0,
					"patching_rect" : [ 1403.833317279815674, 789.000018835067749, 144.0, 27.0 ],
					"presentation" : 1,
					"presentation_rect" : [ 1045.547641379492688, 573.333352208137512, 160.0, 27.0 ],
					"text" : "Gas Prices",
					"textcolor" : [ 0.847058823529412, 0.847058823529412, 0.847058823529412, 1.0 ]
				}

			}
, 			{
				"box" : 				{
					"fontsize" : 14.0,
					"id" : "obj-116",
					"linecount" : 10,
					"maxclass" : "comment",
					"numinlets" : 1,
					"numoutlets" : 0,
					"patching_rect" : [ 1211.714311463492322, 826.333353638648987, 124.0, 163.0 ],
					"presentation" : 1,
					"presentation_linecount" : 4,
					"presentation_rect" : [ 1045.547641379492688, 125.50000011920929, 286.166670083999634, 69.0 ],
					"text" : "In order to graph data with vastly different scales and units on the same graph, I've normalized the values between 0 and 1 by dividing by the maximum value in the series",
					"textcolor" : [ 0.847058823529412, 0.847058823529412, 0.847058823529412, 1.0 ]
				}

			}
, 			{
				"box" : 				{
					"fontface" : 1,
					"fontsize" : 18.0,
					"id" : "obj-113",
					"maxclass" : "comment",
					"numinlets" : 1,
					"numoutlets" : 0,
					"patching_rect" : [ 1211.714311463492322, 781.916675806045532, 144.0, 27.0 ],
					"presentation" : 1,
					"presentation_rect" : [ 1045.547641379492688, 100.583322167396545, 160.0, 27.0 ],
					"text" : "Note",
					"textcolor" : [ 0.847058823529412, 0.847058823529412, 0.847058823529412, 1.0 ]
				}

			}
, 			{
				"box" : 				{
					"fontsize" : 14.0,
					"id" : "obj-111",
					"linecount" : 12,
					"maxclass" : "comment",
					"numinlets" : 1,
					"numoutlets" : 0,
					"patching_rect" : [ 1213.047644836562085, 1017.000025987625122, 127.0, 194.0 ],
					"presentation" : 1,
					"presentation_linecount" : 7,
					"presentation_rect" : [ 1045.547641379492688, 421.333346486091614, 286.000000953674316, 116.0 ],
					"text" : "Source:\nCPI Average Price Data, U.S. city average (AP)\t\n\nDesc:\nElectricity per KWH in U.S. city average, average price, not seasonally adjusted",
					"textcolor" : [ 0.847058823529412, 0.847058823529412, 0.847058823529412, 1.0 ]
				}

			}
, 			{
				"box" : 				{
					"fontface" : 1,
					"fontsize" : 18.0,
					"id" : "obj-112",
					"linecount" : 2,
					"maxclass" : "comment",
					"numinlets" : 1,
					"numoutlets" : 0,
					"patching_rect" : [ 1213.047644836562085, 972.583348155021667, 144.0, 47.0 ],
					"presentation" : 1,
					"presentation_rect" : [ 1045.547641379492688, 396.333346486091614, 160.0, 27.0 ],
					"text" : "Electricity Prices",
					"textcolor" : [ 0.847058823529412, 0.847058823529412, 0.847058823529412, 1.0 ]
				}

			}
, 			{
				"box" : 				{
					"fontsize" : 14.0,
					"id" : "obj-109",
					"linecount" : 11,
					"maxclass" : "comment",
					"numinlets" : 1,
					"numoutlets" : 0,
					"patching_rect" : [ 1650.619022624833178, 1109.000022292137146, 124.0, 179.0 ],
					"presentation" : 1,
					"presentation_linecount" : 7,
					"presentation_rect" : [ 1045.547641379492688, 248.0, 286.000000953674316, 116.0 ],
					"text" : "Source: \nLabor Force Statistics from the Current Population Survey\n\nDesc:\nPercent Unemployment Rate for all aged 16 years and over",
					"textcolor" : [ 0.847058823529412, 0.847058823529412, 0.847058823529412, 1.0 ]
				}

			}
, 			{
				"box" : 				{
					"fontface" : 1,
					"fontsize" : 18.0,
					"id" : "obj-106",
					"linecount" : 2,
					"maxclass" : "comment",
					"numinlets" : 1,
					"numoutlets" : 0,
					"patching_rect" : [ 1570.166659235954285, 1054.666688203811646, 144.0, 47.0 ],
					"presentation" : 1,
					"presentation_rect" : [ 1045.547641379492688, 223.0, 160.0, 27.0 ],
					"text" : "Unemployment %",
					"textcolor" : [ 0.847058823529412, 0.847058823529412, 0.847058823529412, 1.0 ]
				}

			}
, 			{
				"box" : 				{
					"fontface" : 1,
					"fontsize" : 30.0,
					"id" : "obj-105",
					"maxclass" : "comment",
					"numinlets" : 1,
					"numoutlets" : 0,
					"patching_rect" : [ 1394.666648745536804, 1016.958349585533142, 225.0, 40.0 ],
					"presentation" : 1,
					"presentation_rect" : [ 1083.380976659911084, 27.62499213218689, 215.0, 40.0 ],
					"text" : "Data Overview",
					"textcolor" : [ 0.847058823529412, 0.847058823529412, 0.847058823529412, 1.0 ]
				}

			}
, 			{
				"box" : 				{
					"bgcolor" : [ 0.2, 0.2, 0.2, 0.0 ],
					"fontface" : 1,
					"fontsize" : 24.0,
					"id" : "obj-100",
					"maxclass" : "number",
					"numinlets" : 1,
					"numoutlets" : 2,
					"outlettype" : [ "", "bang" ],
					"parameter_enable" : 0,
					"patching_rect" : [ 836.000024914741516, 801.333357214927673, 72.0, 35.0 ],
					"presentation" : 1,
					"presentation_rect" : [ 492.166666030883789, 80.624993920326233, 70.0, 35.0 ],
					"textcolor" : [ 0.847, 0.847, 0.847, 1.0 ],
					"tricolor" : [ 0.501960784313725, 0.501960784313725, 0.501960784313725, 0.0 ]
				}

			}
, 			{
				"box" : 				{
					"fontface" : 1,
					"fontsize" : 24.0,
					"id" : "obj-97",
					"maxclass" : "comment",
					"numinlets" : 1,
					"numoutlets" : 0,
					"patching_rect" : [ 629.166683912277222, 809.958348989486694, 182.0, 33.0 ],
					"presentation" : 1,
					"presentation_rect" : [ 429.666674017906189, 80.624993920326233, 67.0, 33.0 ],
					"text" : "Year:",
					"textcolor" : [ 0.847058823529412, 0.847058823529412, 0.847058823529412, 1.0 ]
				}

			}
, 			{
				"box" : 				{
					"fontface" : 1,
					"fontsize" : 30.0,
					"id" : "obj-95",
					"linecount" : 4,
					"maxclass" : "comment",
					"numinlets" : 1,
					"numoutlets" : 0,
					"patching_rect" : [ 453.880945784705091, 816.00002133846283, 239.0, 141.0 ],
					"presentation" : 1,
					"presentation_rect" : [ 47.880942744868207, 27.62499213218689, 910.000004410743713, 40.0 ],
					"text" : "Visualization of Basic Living Costs in the US from 1980-2020",
					"textcolor" : [ 0.847058823529412, 0.847058823529412, 0.847058823529412, 1.0 ]
				}

			}
, 			{
				"box" : 				{
					"bgcolor" : [ 0.2, 0.2, 0.2, 0.0 ],
					"fontface" : 2,
					"fontsize" : 14.0,
					"format" : 6,
					"id" : "obj-89",
					"maxclass" : "flonum",
					"maximum" : 1.0,
					"minimum" : 0.0,
					"numinlets" : 1,
					"numoutlets" : 2,
					"outlettype" : [ "", "bang" ],
					"parameter_enable" : 0,
					"patching_rect" : [ 2005.928557242666102, 112.0, 57.0, 24.0 ],
					"presentation" : 1,
					"presentation_rect" : [ 877.0, 623.000011801719666, 56.0, 24.0 ],
					"textcolor" : [ 0.847, 0.847, 0.847, 1.0 ],
					"tricolor" : [ 0.501960784313725, 0.501960784313725, 0.501960784313725, 0.0 ]
				}

			}
, 			{
				"box" : 				{
					"bgcolor" : [ 0.2, 0.2, 0.2, 0.0 ],
					"fontface" : 2,
					"fontsize" : 14.0,
					"format" : 6,
					"id" : "obj-90",
					"maxclass" : "flonum",
					"maximum" : 1.0,
					"minimum" : 0.0,
					"numinlets" : 1,
					"numoutlets" : 2,
					"outlettype" : [ "", "bang" ],
					"parameter_enable" : 0,
					"patching_rect" : [ 1953.928557242666102, 112.0, 57.0, 24.0 ],
					"presentation" : 1,
					"presentation_rect" : [ 724.214285714285779, 623.000011801719666, 56.0, 24.0 ],
					"textcolor" : [ 0.847, 0.847, 0.847, 1.0 ],
					"tricolor" : [ 0.501960784313725, 0.501960784313725, 0.501960784313725, 0.0 ]
				}

			}
, 			{
				"box" : 				{
					"id" : "obj-91",
					"maxclass" : "button",
					"numinlets" : 1,
					"numoutlets" : 1,
					"outlettype" : [ "bang" ],
					"parameter_enable" : 0,
					"patching_rect" : [ 1968.928557242666102, 158.0, 24.0, 24.0 ]
				}

			}
, 			{
				"box" : 				{
					"bgcolor" : [ 0.2, 0.2, 0.2, 0.0 ],
					"fontface" : 2,
					"fontsize" : 14.0,
					"format" : 6,
					"id" : "obj-92",
					"maxclass" : "flonum",
					"maximum" : 1.0,
					"minimum" : 0.0,
					"numinlets" : 1,
					"numoutlets" : 2,
					"outlettype" : [ "", "bang" ],
					"parameter_enable" : 0,
					"patching_rect" : [ 1901.928557242666102, 112.0, 57.0, 24.0 ],
					"presentation" : 1,
					"presentation_rect" : [ 577.5, 623.000011801719666, 57.0, 24.0 ],
					"textcolor" : [ 0.847, 0.847, 0.847, 1.0 ],
					"tricolor" : [ 0.501960784313725, 0.501960784313725, 0.501960784313725, 0.0 ]
				}

			}
, 			{
				"box" : 				{
					"id" : "obj-93",
					"maxclass" : "newobj",
					"numinlets" : 3,
					"numoutlets" : 1,
					"outlettype" : [ "" ],
					"patching_rect" : [ 1901.928557242666102, 158.0, 54.0, 22.0 ],
					"text" : "pack f f f"
				}

			}
, 			{
				"box" : 				{
					"attr" : "slidercolor",
					"id" : "obj-94",
					"maxclass" : "attrui",
					"numinlets" : 1,
					"numoutlets" : 1,
					"outlettype" : [ "" ],
					"patching_rect" : [ 1901.928557242666102, 192.0, 150.0, 22.0 ]
				}

			}
, 			{
				"box" : 				{
					"bgcolor" : [ 0.341176470588235, 0.027450980392157, 0.023529411764706, 0.0 ],
					"ghostbar" : 10,
					"id" : "obj-80",
					"maxclass" : "multislider",
					"numinlets" : 1,
					"numoutlets" : 2,
					"outlettype" : [ "", "" ],
					"parameter_enable" : 1,
					"patching_rect" : [ 2023.500014662742615, 392.666680812835693, 485.428571428571445, 309.25 ],
					"presentation" : 1,
					"presentation_rect" : [ 513.5, 663.333346009254456, 477.428571428571445, 309.25 ],
					"saved_attribute_attributes" : 					{
						"valueof" : 						{
							"parameter_invisible" : 1,
							"parameter_mmax" : 1.0,
							"parameter_shortname" : "multislider",
							"parameter_type" : 3,
							"parameter_longname" : "multislider[13]"
						}

					}
,
					"setminmax" : [ 0.0, 1.0 ],
					"setstyle" : 4,
					"slidercolor" : [ 0.0, 0.224, 0.996, 1.0 ],
					"style" : "redness",
					"thickness" : 1,
					"varname" : "multislider[12]"
				}

			}
, 			{
				"box" : 				{
					"bgcolor" : [ 0.341176470588235, 0.027450980392157, 0.023529411764706, 0.0 ],
					"ghostbar" : 10,
					"id" : "obj-81",
					"maxclass" : "multislider",
					"numinlets" : 1,
					"numoutlets" : 2,
					"outlettype" : [ "", "" ],
					"parameter_enable" : 1,
					"patching_rect" : [ 2045.500016212463379, 370.666679263114929, 485.428571428571445, 309.25 ],
					"presentation" : 1,
					"presentation_rect" : [ 513.5, 663.333346009254456, 477.428571428571445, 309.25 ],
					"saved_attribute_attributes" : 					{
						"valueof" : 						{
							"parameter_invisible" : 1,
							"parameter_mmax" : 1.0,
							"parameter_shortname" : "multislider",
							"parameter_type" : 3,
							"parameter_longname" : "multislider[14]"
						}

					}
,
					"setminmax" : [ 0.0, 1.0 ],
					"setstyle" : 4,
					"slidercolor" : [ 0.0, 0.843137254901961, 0.03921568627451, 1.0 ],
					"style" : "redness",
					"thickness" : 1,
					"varname" : "multislider[13]"
				}

			}
, 			{
				"box" : 				{
					"bgcolor" : [ 0.341176470588235, 0.027450980392157, 0.023529411764706, 0.0 ],
					"ghostbar" : 10,
					"id" : "obj-82",
					"maxclass" : "multislider",
					"numinlets" : 1,
					"numoutlets" : 2,
					"outlettype" : [ "", "" ],
					"parameter_enable" : 1,
					"patching_rect" : [ 2060.500016212463379, 340.666679263114929, 485.428571428571445, 309.25 ],
					"presentation" : 1,
					"presentation_rect" : [ 513.5, 663.333346009254456, 477.428571428571445, 309.25 ],
					"saved_attribute_attributes" : 					{
						"valueof" : 						{
							"parameter_invisible" : 1,
							"parameter_mmax" : 1.0,
							"parameter_shortname" : "multislider",
							"parameter_type" : 3,
							"parameter_longname" : "multislider[15]"
						}

					}
,
					"setminmax" : [ 0.0, 1.0 ],
					"setstyle" : 4,
					"slidercolor" : [ 0.996078431372549, 0.0, 0.0, 1.0 ],
					"style" : "redness",
					"thickness" : 1,
					"varname" : "multislider[14]"
				}

			}
, 			{
				"box" : 				{
					"fontsize" : 14.0,
					"id" : "obj-83",
					"linecount" : 2,
					"maxclass" : "comment",
					"numinlets" : 1,
					"numoutlets" : 0,
					"patching_rect" : [ 2274.214301926749158, 261.666679263114929, 96.0, 38.0 ],
					"presentation" : 1,
					"presentation_rect" : [ 687.214285714285779, 599.333346009254456, 130.0, 22.0 ],
					"text" : "G: Electricity Prices",
					"textcolor" : [ 0.847058823529412, 0.847058823529412, 0.847058823529412, 1.0 ],
					"textjustification" : 1
				}

			}
, 			{
				"box" : 				{
					"fontsize" : 14.0,
					"id" : "obj-84",
					"linecount" : 2,
					"maxclass" : "comment",
					"numinlets" : 1,
					"numoutlets" : 0,
					"patching_rect" : [ 2128.000016212463379, 261.666679263114929, 128.0, 38.0 ],
					"presentation" : 1,
					"presentation_rect" : [ 535.0, 599.333346009254456, 141.0, 22.0 ],
					"text" : "R: Unemployment % ",
					"textcolor" : [ 0.847058823529412, 0.847058823529412, 0.847058823529412, 1.0 ],
					"textjustification" : 1
				}

			}
, 			{
				"box" : 				{
					"fontsize" : 14.0,
					"id" : "obj-85",
					"maxclass" : "comment",
					"numinlets" : 1,
					"numoutlets" : 0,
					"patching_rect" : [ 2420.000016212463379, 261.666679263114929, 125.0, 22.0 ],
					"presentation" : 1,
					"presentation_rect" : [ 834.0, 599.333346009254456, 136.0, 22.0 ],
					"text" : "B: Gas Prices",
					"textcolor" : [ 0.847058823529412, 0.847058823529412, 0.847058823529412, 1.0 ],
					"textjustification" : 1
				}

			}
, 			{
				"box" : 				{
					"fontface" : 1,
					"fontsize" : 18.0,
					"id" : "obj-86",
					"linecount" : 3,
					"maxclass" : "comment",
					"numinlets" : 1,
					"numoutlets" : 0,
					"patching_rect" : [ 2252.214301926749158, 232.666679263114929, 139.0, 67.0 ],
					"presentation" : 1,
					"presentation_rect" : [ 589.5, 570.333346009254456, 269.0, 27.0 ],
					"text" : "Hourly Earnings ($ per hour) - ",
					"textcolor" : [ 0.847058823529412, 0.847058823529412, 0.847058823529412, 1.0 ],
					"textjustification" : 1
				}

			}
, 			{
				"box" : 				{
					"bgcolor" : [ 0.341176470588235, 0.027450980392157, 0.023529411764706, 0.0 ],
					"ghostbar" : 10,
					"id" : "obj-87",
					"maxclass" : "multislider",
					"numinlets" : 1,
					"numoutlets" : 2,
					"outlettype" : [ "", "" ],
					"parameter_enable" : 1,
					"patching_rect" : [ 2090.500016212463379, 325.666679263114929, 485.428571428571445, 309.25 ],
					"presentation" : 1,
					"presentation_rect" : [ 513.5, 663.333346009254456, 477.428571428571445, 309.25 ],
					"saved_attribute_attributes" : 					{
						"valueof" : 						{
							"parameter_invisible" : 1,
							"parameter_mmax" : 1.0,
							"parameter_shortname" : "multislider",
							"parameter_type" : 3,
							"parameter_longname" : "multislider[16]"
						}

					}
,
					"setminmax" : [ 0.0, 1.0 ],
					"setstyle" : 5,
					"slidercolor" : [ 1.0, 0.930069923400879, 0.458679705858231, 1.0 ],
					"style" : "redness",
					"thickness" : 1,
					"varname" : "multislider[15]"
				}

			}
, 			{
				"box" : 				{
					"bgcolor" : [ 0.2, 0.2, 0.2, 0.0 ],
					"fontface" : 2,
					"fontsize" : 14.0,
					"format" : 6,
					"id" : "obj-71",
					"maxclass" : "flonum",
					"maximum" : 1.0,
					"minimum" : 0.0,
					"numinlets" : 1,
					"numoutlets" : 2,
					"outlettype" : [ "", "bang" ],
					"parameter_enable" : 0,
					"patching_rect" : [ 1285.714311463492322, 112.0, 57.0, 24.0 ],
					"presentation" : 1,
					"presentation_rect" : [ 375.0, 623.000011801719666, 56.0, 24.0 ],
					"textcolor" : [ 0.847, 0.847, 0.847, 1.0 ],
					"tricolor" : [ 0.501960784313725, 0.501960784313725, 0.501960784313725, 0.0 ]
				}

			}
, 			{
				"box" : 				{
					"bgcolor" : [ 0.2, 0.2, 0.2, 0.0 ],
					"fontface" : 2,
					"fontsize" : 14.0,
					"format" : 6,
					"id" : "obj-72",
					"maxclass" : "flonum",
					"maximum" : 1.0,
					"minimum" : 0.0,
					"numinlets" : 1,
					"numoutlets" : 2,
					"outlettype" : [ "", "bang" ],
					"parameter_enable" : 0,
					"patching_rect" : [ 1233.714311463492322, 112.0, 57.0, 24.0 ],
					"presentation" : 1,
					"presentation_rect" : [ 224.547618848936906, 623.000011801719666, 57.0, 24.0 ],
					"textcolor" : [ 0.847, 0.847, 0.847, 1.0 ],
					"tricolor" : [ 0.501960784313725, 0.501960784313725, 0.501960784313725, 0.0 ]
				}

			}
, 			{
				"box" : 				{
					"id" : "obj-73",
					"maxclass" : "button",
					"numinlets" : 1,
					"numoutlets" : 1,
					"outlettype" : [ "bang" ],
					"parameter_enable" : 0,
					"patching_rect" : [ 1248.714311463492322, 158.0, 24.0, 24.0 ]
				}

			}
, 			{
				"box" : 				{
					"bgcolor" : [ 0.2, 0.2, 0.2, 0.0 ],
					"fontface" : 2,
					"fontsize" : 14.0,
					"format" : 6,
					"id" : "obj-74",
					"maxclass" : "flonum",
					"maximum" : 1.0,
					"minimum" : 0.0,
					"numinlets" : 1,
					"numoutlets" : 2,
					"outlettype" : [ "", "bang" ],
					"parameter_enable" : 0,
					"patching_rect" : [ 1181.714311463492322, 112.0, 57.0, 24.0 ],
					"presentation" : 1,
					"presentation_rect" : [ 76.499999999999943, 623.000011801719666, 57.0, 24.0 ],
					"textcolor" : [ 0.847, 0.847, 0.847, 1.0 ],
					"tricolor" : [ 0.501960784313725, 0.501960784313725, 0.501960784313725, 0.0 ]
				}

			}
, 			{
				"box" : 				{
					"id" : "obj-75",
					"maxclass" : "newobj",
					"numinlets" : 3,
					"numoutlets" : 1,
					"outlettype" : [ "" ],
					"patching_rect" : [ 1181.714311463492322, 158.0, 54.0, 22.0 ],
					"text" : "pack f f f"
				}

			}
, 			{
				"box" : 				{
					"attr" : "slidercolor",
					"id" : "obj-76",
					"maxclass" : "attrui",
					"numinlets" : 1,
					"numoutlets" : 1,
					"outlettype" : [ "" ],
					"patching_rect" : [ 1181.714311463492322, 192.0, 150.0, 22.0 ]
				}

			}
, 			{
				"box" : 				{
					"bgcolor" : [ 0.341176470588235, 0.027450980392157, 0.023529411764706, 0.0 ],
					"ghostbar" : 10,
					"id" : "obj-62",
					"maxclass" : "multislider",
					"numinlets" : 1,
					"numoutlets" : 2,
					"outlettype" : [ "", "" ],
					"parameter_enable" : 1,
					"patching_rect" : [ 1403.833317279815674, 384.000000238418579, 485.428571428571445, 309.25 ],
					"presentation" : 1,
					"presentation_rect" : [ 14.5, 663.333346009254456, 477.428571428571445, 309.25 ],
					"saved_attribute_attributes" : 					{
						"valueof" : 						{
							"parameter_invisible" : 1,
							"parameter_mmax" : 1.0,
							"parameter_shortname" : "multislider",
							"parameter_type" : 3,
							"parameter_longname" : "multislider[4]"
						}

					}
,
					"setminmax" : [ 0.0, 1.0 ],
					"setstyle" : 4,
					"slidercolor" : [ 0.0, 0.224, 0.996, 1.0 ],
					"style" : "redness",
					"thickness" : 1,
					"varname" : "multislider[8]"
				}

			}
, 			{
				"box" : 				{
					"bgcolor" : [ 0.341176470588235, 0.027450980392157, 0.023529411764706, 0.0 ],
					"ghostbar" : 10,
					"id" : "obj-63",
					"maxclass" : "multislider",
					"numinlets" : 1,
					"numoutlets" : 2,
					"outlettype" : [ "", "" ],
					"parameter_enable" : 1,
					"patching_rect" : [ 1419.571414385522985, 359.999999523162842, 485.428571428571445, 309.25 ],
					"presentation" : 1,
					"presentation_rect" : [ 14.5, 663.333346009254456, 477.428571428571445, 309.25 ],
					"saved_attribute_attributes" : 					{
						"valueof" : 						{
							"parameter_invisible" : 1,
							"parameter_mmax" : 1.0,
							"parameter_shortname" : "multislider",
							"parameter_type" : 3,
							"parameter_longname" : "multislider[10]"
						}

					}
,
					"setminmax" : [ 0.0, 1.0 ],
					"setstyle" : 4,
					"slidercolor" : [ 0.0, 0.843137254901961, 0.03921568627451, 1.0 ],
					"style" : "redness",
					"thickness" : 1,
					"varname" : "multislider[9]"
				}

			}
, 			{
				"box" : 				{
					"bgcolor" : [ 0.341176470588235, 0.027450980392157, 0.023529411764706, 0.0 ],
					"ghostbar" : 10,
					"id" : "obj-64",
					"maxclass" : "multislider",
					"numinlets" : 1,
					"numoutlets" : 2,
					"outlettype" : [ "", "" ],
					"parameter_enable" : 1,
					"patching_rect" : [ 1434.499984860420227, 343.333356142044067, 485.428571428571445, 309.25 ],
					"presentation" : 1,
					"presentation_rect" : [ 14.5, 663.333346009254456, 477.428571428571445, 309.25 ],
					"saved_attribute_attributes" : 					{
						"valueof" : 						{
							"parameter_invisible" : 1,
							"parameter_mmax" : 1.0,
							"parameter_shortname" : "multislider",
							"parameter_type" : 3,
							"parameter_longname" : "multislider[11]"
						}

					}
,
					"setminmax" : [ 0.0, 1.0 ],
					"setstyle" : 4,
					"slidercolor" : [ 0.996078431372549, 0.0, 0.0, 1.0 ],
					"style" : "redness",
					"thickness" : 1,
					"varname" : "multislider[10]"
				}

			}
, 			{
				"box" : 				{
					"fontsize" : 14.0,
					"id" : "obj-65",
					"linecount" : 3,
					"maxclass" : "comment",
					"numinlets" : 1,
					"numoutlets" : 0,
					"patching_rect" : [ 1650.214271528380323, 264.666689038276672, 81.0, 53.0 ],
					"presentation" : 1,
					"presentation_rect" : [ 188.214285714285722, 599.333346009254456, 130.0, 22.0 ],
					"text" : "G: Unmployment %",
					"textcolor" : [ 0.847058823529412, 0.847058823529412, 0.847058823529412, 1.0 ],
					"textjustification" : 1
				}

			}
, 			{
				"box" : 				{
					"fontsize" : 14.0,
					"id" : "obj-66",
					"maxclass" : "comment",
					"numinlets" : 1,
					"numoutlets" : 0,
					"patching_rect" : [ 1516.999985814094543, 264.666689038276672, 130.0, 22.0 ],
					"presentation" : 1,
					"presentation_rect" : [ 41.999999999999943, 599.333346009254456, 126.0, 22.0 ],
					"text" : "R: Hourly Earnings",
					"textcolor" : [ 0.847058823529412, 0.847058823529412, 0.847058823529412, 1.0 ],
					"textjustification" : 1
				}

			}
, 			{
				"box" : 				{
					"fontsize" : 14.0,
					"id" : "obj-67",
					"linecount" : 2,
					"maxclass" : "comment",
					"numinlets" : 1,
					"numoutlets" : 0,
					"patching_rect" : [ 1795.999985814094543, 264.666689038276672, 125.0, 38.0 ],
					"presentation" : 1,
					"presentation_rect" : [ 334.5, 599.333346009254456, 137.0, 22.0 ],
					"text" : "B: Electricity Prices",
					"textcolor" : [ 0.847058823529412, 0.847058823529412, 0.847058823529412, 1.0 ],
					"textjustification" : 1
				}

			}
, 			{
				"box" : 				{
					"fontface" : 1,
					"fontsize" : 18.0,
					"id" : "obj-68",
					"linecount" : 2,
					"maxclass" : "comment",
					"numinlets" : 1,
					"numoutlets" : 0,
					"patching_rect" : [ 1628.214271528380323, 235.666689038276672, 139.0, 47.0 ],
					"presentation" : 1,
					"presentation_rect" : [ 100.5, 570.333346009254456, 236.0, 27.0 ],
					"text" : "Gas Prices ($ per gallon) - ",
					"textcolor" : [ 0.847058823529412, 0.847058823529412, 0.847058823529412, 1.0 ],
					"textjustification" : 1
				}

			}
, 			{
				"box" : 				{
					"bgcolor" : [ 0.341176470588235, 0.027450980392157, 0.023529411764706, 0.0 ],
					"ghostbar" : 10,
					"id" : "obj-69",
					"maxclass" : "multislider",
					"numinlets" : 1,
					"numoutlets" : 2,
					"outlettype" : [ "", "" ],
					"parameter_enable" : 1,
					"patching_rect" : [ 1466.499985814094543, 328.666689038276672, 485.428571428571445, 309.25 ],
					"presentation" : 1,
					"presentation_rect" : [ 14.5, 663.333346009254456, 477.428571428571445, 309.25 ],
					"saved_attribute_attributes" : 					{
						"valueof" : 						{
							"parameter_invisible" : 1,
							"parameter_mmax" : 1.0,
							"parameter_shortname" : "multislider",
							"parameter_type" : 3,
							"parameter_longname" : "multislider[12]"
						}

					}
,
					"setminmax" : [ 0.0, 1.0 ],
					"setstyle" : 5,
					"slidercolor" : [ 1.0, 1.0, 0.930069923400879, 1.0 ],
					"style" : "redness",
					"thickness" : 1,
					"varname" : "multislider[11]"
				}

			}
, 			{
				"box" : 				{
					"bgcolor" : [ 0.2, 0.2, 0.2, 0.0 ],
					"fontface" : 2,
					"fontsize" : 14.0,
					"format" : 6,
					"id" : "obj-53",
					"maxclass" : "flonum",
					"maximum" : 1.0,
					"minimum" : 0.0,
					"numinlets" : 1,
					"numoutlets" : 2,
					"outlettype" : [ "", "bang" ],
					"parameter_enable" : 0,
					"patching_rect" : [ 449.714286548750806, 107.0, 57.0, 24.0 ],
					"presentation" : 1,
					"presentation_rect" : [ 877.0, 196.0, 57.0, 24.0 ],
					"textcolor" : [ 0.847, 0.847, 0.847, 1.0 ],
					"tricolor" : [ 0.501960784313725, 0.501960784313725, 0.501960784313725, 0.0 ]
				}

			}
, 			{
				"box" : 				{
					"bgcolor" : [ 0.2, 0.2, 0.2, 0.0 ],
					"fontface" : 2,
					"fontsize" : 14.0,
					"format" : 6,
					"id" : "obj-54",
					"maxclass" : "flonum",
					"maximum" : 1.0,
					"minimum" : 0.0,
					"numinlets" : 1,
					"numoutlets" : 2,
					"outlettype" : [ "", "bang" ],
					"parameter_enable" : 0,
					"patching_rect" : [ 397.714286548750806, 107.0, 57.0, 24.0 ],
					"presentation" : 1,
					"presentation_rect" : [ 723.714285714285779, 196.0, 57.0, 24.0 ],
					"textcolor" : [ 0.847, 0.847, 0.847, 1.0 ],
					"tricolor" : [ 0.501960784313725, 0.501960784313725, 0.501960784313725, 0.0 ]
				}

			}
, 			{
				"box" : 				{
					"id" : "obj-55",
					"maxclass" : "button",
					"numinlets" : 1,
					"numoutlets" : 1,
					"outlettype" : [ "bang" ],
					"parameter_enable" : 0,
					"patching_rect" : [ 412.714286548750806, 153.0, 24.0, 24.0 ]
				}

			}
, 			{
				"box" : 				{
					"bgcolor" : [ 0.2, 0.2, 0.2, 0.0 ],
					"fontface" : 2,
					"fontsize" : 14.0,
					"format" : 6,
					"id" : "obj-56",
					"maxclass" : "flonum",
					"maximum" : 1.0,
					"minimum" : 0.0,
					"numinlets" : 1,
					"numoutlets" : 2,
					"outlettype" : [ "", "bang" ],
					"parameter_enable" : 0,
					"patching_rect" : [ 345.714286548750806, 107.0, 57.0, 24.0 ],
					"presentation" : 1,
					"presentation_rect" : [ 577.5, 196.0, 56.0, 24.0 ],
					"textcolor" : [ 0.847, 0.847, 0.847, 1.0 ],
					"tricolor" : [ 0.501960784313725, 0.501960784313725, 0.501960784313725, 0.0 ]
				}

			}
, 			{
				"box" : 				{
					"id" : "obj-57",
					"maxclass" : "newobj",
					"numinlets" : 3,
					"numoutlets" : 1,
					"outlettype" : [ "" ],
					"patching_rect" : [ 345.714286548750806, 153.0, 54.0, 22.0 ],
					"text" : "pack f f f"
				}

			}
, 			{
				"box" : 				{
					"attr" : "slidercolor",
					"id" : "obj-58",
					"maxclass" : "attrui",
					"numinlets" : 1,
					"numoutlets" : 1,
					"outlettype" : [ "" ],
					"patching_rect" : [ 345.714286548750806, 187.0, 150.0, 22.0 ]
				}

			}
, 			{
				"box" : 				{
					"bgcolor" : [ 0.341176470588235, 0.027450980392157, 0.023529411764706, 0.0 ],
					"ghostbar" : 10,
					"id" : "obj-41",
					"maxclass" : "multislider",
					"numinlets" : 1,
					"numoutlets" : 2,
					"outlettype" : [ "", "" ],
					"parameter_enable" : 1,
					"patching_rect" : [ 667.933332061767601, 420.000001311302185, 485.428571428571445, 309.25 ],
					"presentation" : 1,
					"presentation_rect" : [ 513.5, 238.0, 477.428571428571445, 309.25 ],
					"saved_attribute_attributes" : 					{
						"valueof" : 						{
							"parameter_invisible" : 1,
							"parameter_mmax" : 1.0,
							"parameter_shortname" : "multislider",
							"parameter_type" : 3,
							"parameter_longname" : "multislider[6]"
						}

					}
,
					"setminmax" : [ 0.0, 1.0 ],
					"setstyle" : 4,
					"slidercolor" : [ 0.0, 0.224, 0.996, 1.0 ],
					"style" : "redness",
					"thickness" : 1,
					"varname" : "multislider[4]"
				}

			}
, 			{
				"box" : 				{
					"bgcolor" : [ 0.341176470588235, 0.027450980392157, 0.023529411764706, 0.0 ],
					"ghostbar" : 10,
					"id" : "obj-42",
					"maxclass" : "multislider",
					"numinlets" : 1,
					"numoutlets" : 2,
					"outlettype" : [ "", "" ],
					"parameter_enable" : 1,
					"patching_rect" : [ 678.599999046325706, 406.666667580604553, 485.428571428571445, 309.25 ],
					"presentation" : 1,
					"presentation_rect" : [ 513.5, 238.0, 477.428571428571445, 309.25 ],
					"saved_attribute_attributes" : 					{
						"valueof" : 						{
							"parameter_invisible" : 1,
							"parameter_mmax" : 1.0,
							"parameter_shortname" : "multislider",
							"parameter_type" : 3,
							"parameter_longname" : "multislider[7]"
						}

					}
,
					"setminmax" : [ 0.0, 1.0 ],
					"setstyle" : 4,
					"slidercolor" : [ 0.0, 0.843137254901961, 0.03921568627451, 1.0 ],
					"style" : "redness",
					"thickness" : 1,
					"varname" : "multislider[5]"
				}

			}
, 			{
				"box" : 				{
					"bgcolor" : [ 0.341176470588235, 0.027450980392157, 0.023529411764706, 0.0 ],
					"ghostbar" : 10,
					"id" : "obj-43",
					"maxclass" : "multislider",
					"numinlets" : 1,
					"numoutlets" : 2,
					"outlettype" : [ "", "" ],
					"parameter_enable" : 1,
					"patching_rect" : [ 687.933332777023224, 384.000000238418579, 485.428571428571445, 309.25 ],
					"presentation" : 1,
					"presentation_rect" : [ 513.5, 238.0, 477.428571428571445, 309.25 ],
					"saved_attribute_attributes" : 					{
						"valueof" : 						{
							"parameter_invisible" : 1,
							"parameter_mmax" : 1.0,
							"parameter_shortname" : "multislider",
							"parameter_type" : 3,
							"parameter_longname" : "multislider[8]"
						}

					}
,
					"setminmax" : [ 0.0, 1.0 ],
					"setstyle" : 4,
					"slidercolor" : [ 0.996078431372549, 0.0, 0.0, 1.0 ],
					"style" : "redness",
					"thickness" : 1,
					"varname" : "multislider[6]"
				}

			}
, 			{
				"box" : 				{
					"fontsize" : 14.0,
					"id" : "obj-44",
					"linecount" : 2,
					"maxclass" : "comment",
					"numinlets" : 1,
					"numoutlets" : 0,
					"patching_rect" : [ 907.814285714285802, 295.999999523162842, 95.0, 38.0 ],
					"presentation" : 1,
					"presentation_rect" : [ 688.714285714285779, 174.0, 127.0, 22.0 ],
					"text" : "G: Hourly Earnings",
					"textcolor" : [ 0.847058823529412, 0.847058823529412, 0.847058823529412, 1.0 ]
				}

			}
, 			{
				"box" : 				{
					"fontsize" : 14.0,
					"id" : "obj-45",
					"maxclass" : "comment",
					"numinlets" : 1,
					"numoutlets" : 0,
					"patching_rect" : [ 746.600000000000023, 295.999999523162842, 129.0, 22.0 ],
					"presentation" : 1,
					"presentation_rect" : [ 558.0, 174.0, 95.0, 22.0 ],
					"text" : "R: Gas Prices",
					"textcolor" : [ 0.847058823529412, 0.847058823529412, 0.847058823529412, 1.0 ]
				}

			}
, 			{
				"box" : 				{
					"fontsize" : 14.0,
					"id" : "obj-46",
					"linecount" : 2,
					"maxclass" : "comment",
					"numinlets" : 1,
					"numoutlets" : 0,
					"patching_rect" : [ 1044.599999999999909, 295.999999523162842, 124.0, 38.0 ],
					"presentation" : 1,
					"presentation_rect" : [ 837.666666507720947, 174.0, 136.0, 22.0 ],
					"text" : "B: Unemployment %",
					"textcolor" : [ 0.847058823529412, 0.847058823529412, 0.847058823529412, 1.0 ]
				}

			}
, 			{
				"box" : 				{
					"fontface" : 1,
					"fontsize" : 18.0,
					"id" : "obj-47",
					"linecount" : 3,
					"maxclass" : "comment",
					"numinlets" : 1,
					"numoutlets" : 0,
					"patching_rect" : [ 879.814285714285802, 266.999999523162842, 139.0, 67.0 ],
					"presentation" : 1,
					"presentation_rect" : [ 579.5, 145.0, 278.0, 27.0 ],
					"text" : "Electricity Prices ($ per KWH) - ",
					"textcolor" : [ 0.847058823529412, 0.847058823529412, 0.847058823529412, 1.0 ]
				}

			}
, 			{
				"box" : 				{
					"bgcolor" : [ 0.341176470588235, 0.027450980392157, 0.023529411764706, 0.0 ],
					"ghostbar" : 10,
					"id" : "obj-51",
					"maxclass" : "multislider",
					"numinlets" : 1,
					"numoutlets" : 2,
					"outlettype" : [ "", "" ],
					"parameter_enable" : 1,
					"patching_rect" : [ 710.600000000000023, 359.999999523162842, 485.428571428571445, 309.25 ],
					"presentation" : 1,
					"presentation_rect" : [ 513.5, 238.0, 477.428571428571445, 309.25 ],
					"saved_attribute_attributes" : 					{
						"valueof" : 						{
							"parameter_invisible" : 1,
							"parameter_mmax" : 1.0,
							"parameter_shortname" : "multislider",
							"parameter_type" : 3,
							"parameter_longname" : "multislider[9]"
						}

					}
,
					"setminmax" : [ 0.0, 1.0 ],
					"setstyle" : 5,
					"slidercolor" : [ 0.458679705858231, 1.0, 1.0, 1.0 ],
					"style" : "redness",
					"thickness" : 1,
					"varname" : "multislider[7]"
				}

			}
, 			{
				"box" : 				{
					"angle" : 270.0,
					"grad1" : [ 0.145098039215686, 0.145098039215686, 0.145098039215686, 1.0 ],
					"grad2" : [ 0.0, 0.0, 0.0, 1.0 ],
					"id" : "obj-52",
					"maxclass" : "panel",
					"mode" : 1,
					"numinlets" : 1,
					"numoutlets" : 0,
					"patching_rect" : [ 46.833319425582886, 1136.333358764648438, 128.0, 128.0 ],
					"presentation" : 1,
					"presentation_rect" : [ 513.5, 145.0, 477.428571428571445, 402.25 ],
					"proportion" : 0.269921436588103
				}

			}
, 			{
				"box" : 				{
					"bgcolor" : [ 0.341176470588235, 0.027450980392157, 0.023529411764706, 0.0 ],
					"ghostbar" : 10,
					"id" : "obj-20",
					"maxclass" : "multislider",
					"numinlets" : 1,
					"numoutlets" : 2,
					"outlettype" : [ "", "" ],
					"parameter_enable" : 1,
					"patching_rect" : [ 78.666666030883789, 406.666667580604553, 485.428571428571445, 309.25 ],
					"presentation" : 1,
					"presentation_rect" : [ 14.5, 238.0, 477.428571428571445, 309.25 ],
					"saved_attribute_attributes" : 					{
						"valueof" : 						{
							"parameter_invisible" : 1,
							"parameter_mmax" : 1.0,
							"parameter_shortname" : "multislider",
							"parameter_type" : 3,
							"parameter_longname" : "multislider[3]"
						}

					}
,
					"setminmax" : [ 0.0, 1.0 ],
					"setstyle" : 4,
					"slidercolor" : [ 0.0, 0.223529411764706, 0.996078431372549, 1.0 ],
					"style" : "redness",
					"thickness" : 1,
					"varname" : "multislider[3]"
				}

			}
, 			{
				"box" : 				{
					"bgcolor" : [ 0.341176470588235, 0.027450980392157, 0.023529411764706, 0.0 ],
					"ghostbar" : 10,
					"id" : "obj-18",
					"maxclass" : "multislider",
					"numinlets" : 1,
					"numoutlets" : 2,
					"outlettype" : [ "", "" ],
					"parameter_enable" : 1,
					"patching_rect" : [ 86.666666269302368, 393.333331942558289, 485.428571428571445, 309.25 ],
					"presentation" : 1,
					"presentation_rect" : [ 14.5, 238.0, 477.428571428571445, 309.25 ],
					"saved_attribute_attributes" : 					{
						"valueof" : 						{
							"parameter_invisible" : 1,
							"parameter_mmax" : 1.0,
							"parameter_shortname" : "multislider",
							"parameter_type" : 3,
							"parameter_longname" : "multislider[2]"
						}

					}
,
					"setminmax" : [ 0.0, 1.0 ],
					"setstyle" : 4,
					"slidercolor" : [ 0.0, 0.843137254901961, 0.03921568627451, 1.0 ],
					"style" : "redness",
					"thickness" : 1,
					"varname" : "multislider[2]"
				}

			}
, 			{
				"box" : 				{
					"bgcolor" : [ 0.341176470588235, 0.027450980392157, 0.023529411764706, 0.0 ],
					"ghostbar" : 10,
					"id" : "obj-17",
					"maxclass" : "multislider",
					"numinlets" : 1,
					"numoutlets" : 2,
					"outlettype" : [ "", "" ],
					"parameter_enable" : 1,
					"patching_rect" : [ 99.071429405893582, 378.333332419395447, 485.428571428571445, 309.25 ],
					"presentation" : 1,
					"presentation_rect" : [ 14.5, 238.0, 477.428571428571445, 309.25 ],
					"saved_attribute_attributes" : 					{
						"valueof" : 						{
							"parameter_invisible" : 1,
							"parameter_mmax" : 1.0,
							"parameter_shortname" : "multislider",
							"parameter_type" : 3,
							"parameter_longname" : "multislider[1]"
						}

					}
,
					"setminmax" : [ 0.0, 1.0 ],
					"setstyle" : 4,
					"slidercolor" : [ 0.996078431372549, 0.0, 0.0, 1.0 ],
					"style" : "redness",
					"thickness" : 1,
					"varname" : "multislider[1]"
				}

			}
, 			{
				"box" : 				{
					"fontsize" : 14.0,
					"id" : "obj-16",
					"maxclass" : "comment",
					"numinlets" : 1,
					"numoutlets" : 0,
					"patching_rect" : [ 338.714286548750806, 395.333332419395447, 96.0, 22.0 ],
					"presentation" : 1,
					"presentation_rect" : [ 205.047618848936906, 174.0, 96.0, 22.0 ],
					"text" : "G: Gas Prices",
					"textcolor" : [ 0.847058823529412, 0.847058823529412, 0.847058823529412, 1.0 ]
				}

			}
, 			{
				"box" : 				{
					"fontsize" : 14.0,
					"id" : "obj-11",
					"maxclass" : "comment",
					"numinlets" : 1,
					"numoutlets" : 0,
					"patching_rect" : [ 177.500000834465027, 395.333332419395447, 129.0, 22.0 ],
					"presentation" : 1,
					"presentation_rect" : [ 41.999999999999943, 174.0, 129.0, 22.0 ],
					"text" : "R: Electricity Prices",
					"textcolor" : [ 0.847058823529412, 0.847058823529412, 0.847058823529412, 1.0 ]
				}

			}
, 			{
				"box" : 				{
					"fontsize" : 14.0,
					"id" : "obj-9",
					"maxclass" : "comment",
					"numinlets" : 1,
					"numoutlets" : 0,
					"patching_rect" : [ 475.500000834465027, 395.333332419395447, 125.0, 22.0 ],
					"presentation" : 1,
					"presentation_rect" : [ 340.500000000000057, 174.0, 125.0, 22.0 ],
					"text" : "B: Hourly Earnings",
					"textcolor" : [ 0.847058823529412, 0.847058823529412, 0.847058823529412, 1.0 ]
				}

			}
, 			{
				"box" : 				{
					"fontface" : 1,
					"fontsize" : 18.0,
					"id" : "obj-7",
					"linecount" : 2,
					"maxclass" : "comment",
					"numinlets" : 1,
					"numoutlets" : 0,
					"patching_rect" : [ 301.214286548750806, 349.333332419395447, 144.0, 47.0 ],
					"presentation" : 1,
					"presentation_rect" : [ 139.5, 145.0, 176.0, 27.0 ],
					"text" : "Unemployment % - ",
					"textcolor" : [ 0.847058823529412, 0.847058823529412, 0.847058823529412, 1.0 ]
				}

			}
, 			{
				"box" : 				{
					"format" : 6,
					"id" : "obj-38",
					"maxclass" : "flonum",
					"numinlets" : 1,
					"numoutlets" : 2,
					"outlettype" : [ "", "bang" ],
					"parameter_enable" : 0,
					"patching_rect" : [ 940.399999999999977, 152.0, 50.0, 22.0 ]
				}

			}
, 			{
				"box" : 				{
					"format" : 6,
					"id" : "obj-37",
					"maxclass" : "flonum",
					"numinlets" : 1,
					"numoutlets" : 2,
					"outlettype" : [ "", "bang" ],
					"parameter_enable" : 0,
					"patching_rect" : [ 634.0, 152.0, 50.0, 22.0 ]
				}

			}
, 			{
				"box" : 				{
					"format" : 6,
					"id" : "obj-36",
					"maxclass" : "flonum",
					"numinlets" : 1,
					"numoutlets" : 2,
					"outlettype" : [ "", "bang" ],
					"parameter_enable" : 0,
					"patching_rect" : [ 710.600000000000023, 152.0, 50.0, 22.0 ]
				}

			}
, 			{
				"box" : 				{
					"format" : 6,
					"id" : "obj-35",
					"maxclass" : "flonum",
					"numinlets" : 1,
					"numoutlets" : 2,
					"outlettype" : [ "", "bang" ],
					"parameter_enable" : 0,
					"patching_rect" : [ 787.200000000000045, 152.0, 50.0, 22.0 ]
				}

			}
, 			{
				"box" : 				{
					"bgcolor" : [ 0.2, 0.2, 0.2, 0.0 ],
					"fontface" : 2,
					"fontsize" : 14.0,
					"format" : 6,
					"id" : "obj-34",
					"maxclass" : "flonum",
					"maximum" : 1.0,
					"minimum" : 0.0,
					"numinlets" : 1,
					"numoutlets" : 2,
					"outlettype" : [ "", "bang" ],
					"parameter_enable" : 0,
					"patching_rect" : [ 204.0, 107.0, 57.0, 24.0 ],
					"presentation" : 1,
					"presentation_rect" : [ 374.5, 196.0, 57.0, 24.0 ],
					"textcolor" : [ 0.847, 0.847, 0.847, 1.0 ],
					"tricolor" : [ 0.501960784313725, 0.501960784313725, 0.501960784313725, 0.0 ]
				}

			}
, 			{
				"box" : 				{
					"bgcolor" : [ 0.2, 0.2, 0.2, 0.0 ],
					"fontface" : 2,
					"fontsize" : 14.0,
					"format" : 6,
					"id" : "obj-33",
					"maxclass" : "flonum",
					"maximum" : 1.0,
					"minimum" : 0.0,
					"numinlets" : 1,
					"numoutlets" : 2,
					"outlettype" : [ "", "bang" ],
					"parameter_enable" : 0,
					"patching_rect" : [ 152.0, 107.0, 57.0, 24.0 ],
					"presentation" : 1,
					"presentation_rect" : [ 228.214285714285722, 196.0, 56.0, 24.0 ],
					"textcolor" : [ 0.847, 0.847, 0.847, 1.0 ],
					"tricolor" : [ 0.501960784313725, 0.501960784313725, 0.501960784313725, 0.0 ]
				}

			}
, 			{
				"box" : 				{
					"id" : "obj-32",
					"maxclass" : "button",
					"numinlets" : 1,
					"numoutlets" : 1,
					"outlettype" : [ "bang" ],
					"parameter_enable" : 0,
					"patching_rect" : [ 167.0, 153.0, 24.0, 24.0 ]
				}

			}
, 			{
				"box" : 				{
					"bgcolor" : [ 0.2, 0.2, 0.2, 0.0 ],
					"fontface" : 2,
					"fontsize" : 14.0,
					"format" : 6,
					"id" : "obj-30",
					"maxclass" : "flonum",
					"maximum" : 1.0,
					"minimum" : 0.0,
					"numinlets" : 1,
					"numoutlets" : 2,
					"outlettype" : [ "", "bang" ],
					"parameter_enable" : 0,
					"patching_rect" : [ 100.0, 107.0, 57.0, 24.0 ],
					"presentation" : 1,
					"presentation_rect" : [ 78.499999999999943, 196.0, 56.0, 24.0 ],
					"textcolor" : [ 0.847, 0.847, 0.847, 1.0 ],
					"tricolor" : [ 0.501960784313725, 0.501960784313725, 0.501960784313725, 0.0 ]
				}

			}
, 			{
				"box" : 				{
					"id" : "obj-24",
					"maxclass" : "newobj",
					"numinlets" : 3,
					"numoutlets" : 1,
					"outlettype" : [ "" ],
					"patching_rect" : [ 100.0, 153.0, 54.0, 22.0 ],
					"text" : "pack f f f"
				}

			}
, 			{
				"box" : 				{
					"format" : 6,
					"id" : "obj-19",
					"maxclass" : "flonum",
					"numinlets" : 1,
					"numoutlets" : 2,
					"outlettype" : [ "", "bang" ],
					"parameter_enable" : 0,
					"patching_rect" : [ 863.799999999999955, 152.0, 50.0, 22.0 ]
				}

			}
, 			{
				"box" : 				{
					"id" : "obj-6",
					"maxclass" : "newobj",
					"numinlets" : 1,
					"numoutlets" : 11,
					"outlettype" : [ "", "", "", "", "", "", "", "", "", "", "" ],
					"patching_rect" : [ 634.0, 112.0, 561.0, 22.0 ],
					"text" : "OSC-route /elec_norm /gas_norm /bread_norm /unemp_norm /earn_norm /year /unemp /elec /gas /earn"
				}

			}
, 			{
				"box" : 				{
					"id" : "obj-2",
					"maxclass" : "newobj",
					"numinlets" : 1,
					"numoutlets" : 1,
					"outlettype" : [ "" ],
					"patching_rect" : [ 588.0, 25.0, 133.0, 22.0 ],
					"text" : "udpreceive 8899 cnmat"
				}

			}
, 			{
				"box" : 				{
					"id" : "obj-15",
					"maxclass" : "newobj",
					"numinlets" : 1,
					"numoutlets" : 3,
					"outlettype" : [ "", "", "OSCTimeTag" ],
					"patching_rect" : [ 588.0, 59.0, 111.0, 22.0 ],
					"text" : "OpenSoundControl"
				}

			}
, 			{
				"box" : 				{
					"bgcolor" : [ 0.341176470588235, 0.027450980392157, 0.023529411764706, 0.0 ],
					"ghostbar" : 10,
					"id" : "obj-4",
					"maxclass" : "multislider",
					"numinlets" : 1,
					"numoutlets" : 2,
					"outlettype" : [ "", "" ],
					"parameter_enable" : 1,
					"patching_rect" : [ 128.000000834465027, 345.333332419395447, 485.428571428571445, 309.25 ],
					"presentation" : 1,
					"presentation_rect" : [ 14.5, 238.0, 477.428571428571445, 309.25 ],
					"saved_attribute_attributes" : 					{
						"valueof" : 						{
							"parameter_invisible" : 1,
							"parameter_mmax" : 1.0,
							"parameter_shortname" : "multislider",
							"parameter_type" : 3,
							"parameter_longname" : "multislider"
						}

					}
,
					"setminmax" : [ 0.0, 1.0 ],
					"setstyle" : 5,
					"slidercolor" : [ 0.930069923400879, 0.458679705858231, 1.0, 1.0 ],
					"style" : "redness",
					"thickness" : 1,
					"varname" : "multislider"
				}

			}
, 			{
				"box" : 				{
					"attr" : "slidercolor",
					"id" : "obj-12",
					"maxclass" : "attrui",
					"numinlets" : 1,
					"numoutlets" : 1,
					"outlettype" : [ "" ],
					"patching_rect" : [ 100.0, 187.0, 150.0, 22.0 ]
				}

			}
, 			{
				"box" : 				{
					"angle" : 270.0,
					"grad1" : [ 0.0, 0.0, 0.0, 1.0 ],
					"grad2" : [ 0.513725490196078, 0.513725490196078, 0.513725490196078, 1.0 ],
					"id" : "obj-96",
					"maxclass" : "panel",
					"mode" : 1,
					"numinlets" : 1,
					"numoutlets" : 0,
					"patching_rect" : [ 46.833319425582886, 785.333353757858276, 128.0, 128.0 ],
					"presentation" : 1,
					"presentation_rect" : [ 14.833318471908569, 5.333330512046814, 976.095252956662875, 122.249991655349731 ],
					"proportion" : 0.5
				}

			}
, 			{
				"box" : 				{
					"angle" : 270.0,
					"grad1" : [ 0.0, 0.0, 0.0, 1.0 ],
					"grad2" : [ 0.513725490196078, 0.513725490196078, 0.513725490196078, 1.0 ],
					"id" : "obj-104",
					"maxclass" : "panel",
					"mode" : 1,
					"numinlets" : 1,
					"numoutlets" : 0,
					"patching_rect" : [ 1542.452362554413867, 961.666686773300171, 128.0, 128.0 ],
					"presentation" : 1,
					"presentation_rect" : [ 1005.500014662742615, 5.333330512046814, 370.761923994336939, 967.250015497207642 ],
					"proportion" : 0.5
				}

			}
, 			{
				"box" : 				{
					"angle" : 270.0,
					"grad1" : [ 0.145098039215686, 0.145098039215686, 0.145098039215686, 1.0 ],
					"grad2" : [ 0.0, 0.0, 0.0, 1.0 ],
					"id" : "obj-8",
					"maxclass" : "panel",
					"mode" : 1,
					"numinlets" : 1,
					"numoutlets" : 0,
					"patching_rect" : [ 188.166656970977783, 777.000018835067749, 128.0, 128.0 ],
					"presentation" : 1,
					"presentation_rect" : [ 14.833318471908569, 145.0, 477.428571428571445, 402.25 ],
					"proportion" : 0.269921436588103
				}

			}
, 			{
				"box" : 				{
					"angle" : 270.0,
					"grad1" : [ 0.145098039215686, 0.145098039215686, 0.145098039215686, 1.0 ],
					"grad2" : [ 0.0, 0.0, 0.0, 1.0 ],
					"id" : "obj-10",
					"maxclass" : "panel",
					"mode" : 1,
					"numinlets" : 1,
					"numoutlets" : 0,
					"patching_rect" : [ 54.833319664001465, 962.333357691764832, 128.0, 128.0 ],
					"presentation" : 1,
					"presentation_rect" : [ 14.833318471908569, 570.333346009254456, 477.428571428571445, 402.25 ],
					"proportion" : 0.269921436588103
				}

			}
, 			{
				"box" : 				{
					"angle" : 270.0,
					"grad1" : [ 0.145098039215686, 0.145098039215686, 0.145098039215686, 1.0 ],
					"grad2" : [ 0.0, 0.0, 0.0, 1.0 ],
					"id" : "obj-13",
					"maxclass" : "panel",
					"mode" : 1,
					"numinlets" : 1,
					"numoutlets" : 0,
					"patching_rect" : [ 206.833324193954468, 946.333357214927673, 128.0, 128.0 ],
					"presentation" : 1,
					"presentation_rect" : [ 513.5, 570.333346009254456, 477.428571428571445, 402.25 ],
					"proportion" : 0.269921436588103
				}

			}
 ],
		"lines" : [ 			{
				"patchline" : 				{
					"destination" : [ "obj-4", 0 ],
					"source" : [ "obj-12", 0 ]
				}

			}
, 			{
				"patchline" : 				{
					"destination" : [ "obj-6", 0 ],
					"source" : [ "obj-15", 1 ]
				}

			}
, 			{
				"patchline" : 				{
					"destination" : [ "obj-4", 0 ],
					"midpoints" : [ 873.299999999999955, 234.0, 137.500000834465027, 234.0 ],
					"order" : 4,
					"source" : [ "obj-19", 0 ]
				}

			}
, 			{
				"patchline" : 				{
					"destination" : [ "obj-41", 0 ],
					"order" : 2,
					"source" : [ "obj-19", 0 ]
				}

			}
, 			{
				"patchline" : 				{
					"destination" : [ "obj-53", 0 ],
					"order" : 3,
					"source" : [ "obj-19", 0 ]
				}

			}
, 			{
				"patchline" : 				{
					"destination" : [ "obj-63", 0 ],
					"order" : 0,
					"source" : [ "obj-19", 0 ]
				}

			}
, 			{
				"patchline" : 				{
					"destination" : [ "obj-72", 0 ],
					"order" : 1,
					"source" : [ "obj-19", 0 ]
				}

			}
, 			{
				"patchline" : 				{
					"destination" : [ "obj-15", 0 ],
					"source" : [ "obj-2", 0 ]
				}

			}
, 			{
				"patchline" : 				{
					"destination" : [ "obj-12", 0 ],
					"source" : [ "obj-24", 0 ]
				}

			}
, 			{
				"patchline" : 				{
					"destination" : [ "obj-24", 0 ],
					"source" : [ "obj-30", 0 ]
				}

			}
, 			{
				"patchline" : 				{
					"destination" : [ "obj-24", 0 ],
					"midpoints" : [ 176.5, 176.0, 190.0, 176.0, 190.0, 140.0, 109.5, 140.0 ],
					"source" : [ "obj-32", 0 ]
				}

			}
, 			{
				"patchline" : 				{
					"destination" : [ "obj-24", 1 ],
					"order" : 1,
					"source" : [ "obj-33", 0 ]
				}

			}
, 			{
				"patchline" : 				{
					"destination" : [ "obj-32", 0 ],
					"order" : 0,
					"source" : [ "obj-33", 0 ]
				}

			}
, 			{
				"patchline" : 				{
					"destination" : [ "obj-24", 2 ],
					"order" : 1,
					"source" : [ "obj-34", 0 ]
				}

			}
, 			{
				"patchline" : 				{
					"destination" : [ "obj-32", 0 ],
					"order" : 0,
					"source" : [ "obj-34", 0 ]
				}

			}
, 			{
				"patchline" : 				{
					"destination" : [ "obj-18", 0 ],
					"order" : 6,
					"source" : [ "obj-36", 0 ]
				}

			}
, 			{
				"patchline" : 				{
					"destination" : [ "obj-33", 0 ],
					"order" : 5,
					"source" : [ "obj-36", 0 ]
				}

			}
, 			{
				"patchline" : 				{
					"destination" : [ "obj-43", 0 ],
					"order" : 3,
					"source" : [ "obj-36", 0 ]
				}

			}
, 			{
				"patchline" : 				{
					"destination" : [ "obj-56", 0 ],
					"order" : 4,
					"source" : [ "obj-36", 0 ]
				}

			}
, 			{
				"patchline" : 				{
					"destination" : [ "obj-69", 0 ],
					"order" : 2,
					"source" : [ "obj-36", 0 ]
				}

			}
, 			{
				"patchline" : 				{
					"destination" : [ "obj-80", 0 ],
					"order" : 0,
					"source" : [ "obj-36", 0 ]
				}

			}
, 			{
				"patchline" : 				{
					"destination" : [ "obj-89", 0 ],
					"order" : 1,
					"source" : [ "obj-36", 0 ]
				}

			}
, 			{
				"patchline" : 				{
					"destination" : [ "obj-17", 0 ],
					"order" : 6,
					"source" : [ "obj-37", 0 ]
				}

			}
, 			{
				"patchline" : 				{
					"destination" : [ "obj-30", 0 ],
					"order" : 5,
					"source" : [ "obj-37", 0 ]
				}

			}
, 			{
				"patchline" : 				{
					"destination" : [ "obj-51", 0 ],
					"order" : 4,
					"source" : [ "obj-37", 0 ]
				}

			}
, 			{
				"patchline" : 				{
					"destination" : [ "obj-62", 0 ],
					"order" : 2,
					"source" : [ "obj-37", 0 ]
				}

			}
, 			{
				"patchline" : 				{
					"destination" : [ "obj-71", 0 ],
					"order" : 3,
					"source" : [ "obj-37", 0 ]
				}

			}
, 			{
				"patchline" : 				{
					"destination" : [ "obj-81", 0 ],
					"order" : 0,
					"source" : [ "obj-37", 0 ]
				}

			}
, 			{
				"patchline" : 				{
					"destination" : [ "obj-90", 0 ],
					"order" : 1,
					"source" : [ "obj-37", 0 ]
				}

			}
, 			{
				"patchline" : 				{
					"destination" : [ "obj-20", 0 ],
					"order" : 5,
					"source" : [ "obj-38", 0 ]
				}

			}
, 			{
				"patchline" : 				{
					"destination" : [ "obj-34", 0 ],
					"order" : 4,
					"source" : [ "obj-38", 0 ]
				}

			}
, 			{
				"patchline" : 				{
					"destination" : [ "obj-42", 0 ],
					"order" : 2,
					"source" : [ "obj-38", 0 ]
				}

			}
, 			{
				"patchline" : 				{
					"destination" : [ "obj-54", 0 ],
					"order" : 3,
					"source" : [ "obj-38", 0 ]
				}

			}
, 			{
				"patchline" : 				{
					"destination" : [ "obj-64", 0 ],
					"order" : 0,
					"source" : [ "obj-38", 0 ]
				}

			}
, 			{
				"patchline" : 				{
					"destination" : [ "obj-74", 0 ],
					"order" : 1,
					"source" : [ "obj-38", 0 ]
				}

			}
, 			{
				"patchline" : 				{
					"destination" : [ "obj-55", 0 ],
					"order" : 0,
					"source" : [ "obj-53", 0 ]
				}

			}
, 			{
				"patchline" : 				{
					"destination" : [ "obj-57", 2 ],
					"order" : 1,
					"source" : [ "obj-53", 0 ]
				}

			}
, 			{
				"patchline" : 				{
					"destination" : [ "obj-55", 0 ],
					"order" : 0,
					"source" : [ "obj-54", 0 ]
				}

			}
, 			{
				"patchline" : 				{
					"destination" : [ "obj-57", 1 ],
					"order" : 1,
					"source" : [ "obj-54", 0 ]
				}

			}
, 			{
				"patchline" : 				{
					"destination" : [ "obj-57", 0 ],
					"midpoints" : [ 422.214286548750806, 176.0, 435.714286548750806, 176.0, 435.714286548750806, 140.0, 355.214286548750806, 140.0 ],
					"source" : [ "obj-55", 0 ]
				}

			}
, 			{
				"patchline" : 				{
					"destination" : [ "obj-57", 0 ],
					"source" : [ "obj-56", 0 ]
				}

			}
, 			{
				"patchline" : 				{
					"destination" : [ "obj-58", 0 ],
					"source" : [ "obj-57", 0 ]
				}

			}
, 			{
				"patchline" : 				{
					"destination" : [ "obj-51", 0 ],
					"source" : [ "obj-58", 0 ]
				}

			}
, 			{
				"patchline" : 				{
					"destination" : [ "obj-100", 0 ],
					"source" : [ "obj-6", 5 ]
				}

			}
, 			{
				"patchline" : 				{
					"destination" : [ "obj-19", 0 ],
					"order" : 2,
					"source" : [ "obj-6", 3 ]
				}

			}
, 			{
				"patchline" : 				{
					"destination" : [ "obj-21", 0 ],
					"source" : [ "obj-6", 8 ]
				}

			}
, 			{
				"patchline" : 				{
					"destination" : [ "obj-22", 0 ],
					"source" : [ "obj-6", 9 ]
				}

			}
, 			{
				"patchline" : 				{
					"destination" : [ "obj-23", 0 ],
					"source" : [ "obj-6", 7 ]
				}

			}
, 			{
				"patchline" : 				{
					"destination" : [ "obj-25", 0 ],
					"source" : [ "obj-6", 6 ]
				}

			}
, 			{
				"patchline" : 				{
					"destination" : [ "obj-35", 0 ],
					"source" : [ "obj-6", 2 ]
				}

			}
, 			{
				"patchline" : 				{
					"destination" : [ "obj-36", 0 ],
					"source" : [ "obj-6", 1 ]
				}

			}
, 			{
				"patchline" : 				{
					"destination" : [ "obj-37", 0 ],
					"source" : [ "obj-6", 0 ]
				}

			}
, 			{
				"patchline" : 				{
					"destination" : [ "obj-38", 0 ],
					"order" : 1,
					"source" : [ "obj-6", 4 ]
				}

			}
, 			{
				"patchline" : 				{
					"destination" : [ "obj-82", 0 ],
					"order" : 0,
					"source" : [ "obj-6", 3 ]
				}

			}
, 			{
				"patchline" : 				{
					"destination" : [ "obj-87", 0 ],
					"order" : 0,
					"source" : [ "obj-6", 4 ]
				}

			}
, 			{
				"patchline" : 				{
					"destination" : [ "obj-92", 0 ],
					"order" : 1,
					"source" : [ "obj-6", 3 ]
				}

			}
, 			{
				"patchline" : 				{
					"destination" : [ "obj-73", 0 ],
					"order" : 0,
					"source" : [ "obj-71", 0 ]
				}

			}
, 			{
				"patchline" : 				{
					"destination" : [ "obj-75", 2 ],
					"order" : 1,
					"source" : [ "obj-71", 0 ]
				}

			}
, 			{
				"patchline" : 				{
					"destination" : [ "obj-73", 0 ],
					"order" : 0,
					"source" : [ "obj-72", 0 ]
				}

			}
, 			{
				"patchline" : 				{
					"destination" : [ "obj-75", 1 ],
					"order" : 1,
					"source" : [ "obj-72", 0 ]
				}

			}
, 			{
				"patchline" : 				{
					"destination" : [ "obj-75", 0 ],
					"midpoints" : [ 1258.214311463492322, 181.0, 1271.714311463492322, 181.0, 1271.714311463492322, 145.0, 1191.214311463492322, 145.0 ],
					"source" : [ "obj-73", 0 ]
				}

			}
, 			{
				"patchline" : 				{
					"destination" : [ "obj-75", 0 ],
					"source" : [ "obj-74", 0 ]
				}

			}
, 			{
				"patchline" : 				{
					"destination" : [ "obj-76", 0 ],
					"source" : [ "obj-75", 0 ]
				}

			}
, 			{
				"patchline" : 				{
					"destination" : [ "obj-69", 0 ],
					"source" : [ "obj-76", 0 ]
				}

			}
, 			{
				"patchline" : 				{
					"destination" : [ "obj-91", 0 ],
					"order" : 0,
					"source" : [ "obj-89", 0 ]
				}

			}
, 			{
				"patchline" : 				{
					"destination" : [ "obj-93", 2 ],
					"order" : 1,
					"source" : [ "obj-89", 0 ]
				}

			}
, 			{
				"patchline" : 				{
					"destination" : [ "obj-91", 0 ],
					"order" : 0,
					"source" : [ "obj-90", 0 ]
				}

			}
, 			{
				"patchline" : 				{
					"destination" : [ "obj-93", 1 ],
					"order" : 1,
					"source" : [ "obj-90", 0 ]
				}

			}
, 			{
				"patchline" : 				{
					"destination" : [ "obj-93", 0 ],
					"midpoints" : [ 1978.428557242666102, 181.0, 1991.928557242666102, 181.0, 1991.928557242666102, 145.0, 1911.428557242666102, 145.0 ],
					"source" : [ "obj-91", 0 ]
				}

			}
, 			{
				"patchline" : 				{
					"destination" : [ "obj-93", 0 ],
					"source" : [ "obj-92", 0 ]
				}

			}
, 			{
				"patchline" : 				{
					"destination" : [ "obj-94", 0 ],
					"source" : [ "obj-93", 0 ]
				}

			}
, 			{
				"patchline" : 				{
					"destination" : [ "obj-87", 0 ],
					"source" : [ "obj-94", 0 ]
				}

			}
 ],
		"parameters" : 		{
			"obj-62" : [ "multislider[4]", "multislider", 0 ],
			"obj-41" : [ "multislider[6]", "multislider", 0 ],
			"obj-42" : [ "multislider[7]", "multislider", 0 ],
			"obj-64" : [ "multislider[11]", "multislider", 0 ],
			"obj-4" : [ "multislider", "multislider", 0 ],
			"obj-17" : [ "multislider[1]", "multislider", 0 ],
			"obj-51" : [ "multislider[9]", "multislider", 0 ],
			"obj-82" : [ "multislider[15]", "multislider", 0 ],
			"obj-69" : [ "multislider[12]", "multislider", 0 ],
			"obj-63" : [ "multislider[10]", "multislider", 0 ],
			"obj-87" : [ "multislider[16]", "multislider", 0 ],
			"obj-18" : [ "multislider[2]", "multislider", 0 ],
			"obj-81" : [ "multislider[14]", "multislider", 0 ],
			"obj-43" : [ "multislider[8]", "multislider", 0 ],
			"obj-20" : [ "multislider[3]", "multislider", 0 ],
			"obj-80" : [ "multislider[13]", "multislider", 0 ],
			"parameterbanks" : 			{

			}

		}
,
		"dependency_cache" : [ 			{
				"name" : "OpenSoundControl.mxo",
				"type" : "iLaX"
			}
, 			{
				"name" : "OSC-route.mxo",
				"type" : "iLaX"
			}
 ],
		"autosave" : 0,
		"bgcolor" : [ 0.847058823529412, 0.847058823529412, 0.847058823529412, 1.0 ]
	}

}
